<svg width="20" height="20" viewBox="0 0 20 20" fill="none" xmlns="http://www.w3.org/2000/svg">
<g clip-path="url(#clip0_1_7507)">
<path opacity="0.974" fill-rule="evenodd" clip-rule="evenodd" d="M9.95225 0.833252C10.4686 0.854913 10.9619 0.974271 11.4323 1.19132C13.5546 2.13309 15.6711 3.08796 17.7821 4.05591C17.9769 4.185 18.152 4.33621 18.3073 4.50947C17.1686 5.03898 16.0227 5.55618 14.8698 6.06111C14.7743 6.09296 14.6788 6.09296 14.5833 6.06111C11.8663 4.78614 9.15289 3.50505 6.44314 2.2178C6.41492 2.17084 6.43087 2.13902 6.49088 2.12231C7.29172 1.75769 8.09543 1.39961 8.9019 1.0481C9.24957 0.929726 9.59971 0.858112 9.95225 0.833252Z" fill="#D4D4D4"/>
<path opacity="0.969" fill-rule="evenodd" clip-rule="evenodd" d="M4.50954 2.98169C7.32762 4.25543 10.1286 5.56836 12.9123 6.92049C12.2018 7.25187 11.4857 7.57018 10.7639 7.87535C10.3222 8.00922 9.87657 8.02512 9.42707 7.92309C6.85931 6.83422 4.30506 5.71226 1.76432 4.55721C1.70428 4.5405 1.68837 4.50866 1.71657 4.46172C1.8793 4.32074 2.0464 4.18543 2.21788 4.05591C2.98463 3.6922 3.74852 3.33413 4.50954 2.98169Z" fill="#D4D4D4"/>
<path opacity="0.993" fill-rule="evenodd" clip-rule="evenodd" d="M0.928816 5.84619C3.4475 6.93793 5.96193 8.04395 8.47222 9.16433C8.7211 9.26063 8.97571 9.33225 9.2361 9.37918C9.24408 12.6416 9.2361 15.9041 9.21223 19.1665C6.87306 18.1442 4.54158 17.1018 2.21788 16.0393C1.47877 15.5381 1.02521 14.8458 0.857201 13.9625C0.825371 11.3525 0.825371 8.74262 0.857201 6.13265C0.872254 6.03306 0.896126 5.93757 0.928816 5.84619Z" fill="#D4D4D4"/>
<path opacity="0.991" fill-rule="evenodd" clip-rule="evenodd" d="M18.9279 5.8463C18.9911 5.83818 19.0468 5.85408 19.095 5.89404C19.1109 5.97363 19.1269 6.05317 19.1428 6.13275C19.1746 8.74272 19.1746 11.3526 19.1428 13.9626C18.9748 14.8459 18.5212 15.5382 17.7821 16.0394C15.4584 17.1019 13.1269 18.1443 10.7878 19.1666C10.7639 15.9042 10.7559 12.6418 10.7639 9.37928C11.0243 9.33235 11.2789 9.26073 11.5278 9.16444C12.3215 8.80173 13.1172 8.44366 13.9149 8.09022C13.9411 8.79314 13.9809 9.49334 14.0343 10.1909C14.3213 10.7013 14.7112 10.7968 15.204 10.4774C15.3053 10.3842 15.3769 10.2728 15.4188 10.1432C15.4347 9.23605 15.4507 8.32893 15.4666 7.42182C16.6268 6.90123 17.7806 6.37605 18.9279 5.8463Z" fill="#D4D4D4"/>
</g>
<defs>
<clipPath id="clip0_1_7507">
<rect width="20" height="20" fill="white"/>
</clipPath>
</defs>
</svg>
