<svg width="36" height="36" viewBox="0 0 36 36" fill="none" xmlns="http://www.w3.org/2000/svg">
<rect width="36" height="36" rx="18" fill="#F1F5FD"/>
<g clip-path="url(#clip0_1_7522)">
<path d="M15.3047 8.85938C14.1016 8.96875 12.8125 9.44141 11.8281 10.1406C11.1523 10.6211 10.4336 11.3711 9.98436 12.0625C8.16405 14.8633 8.54686 18.5469 10.9062 20.9141C11.4648 21.4766 12.293 22.0586 12.875 22.3008L13.0625 22.3789L14.7773 21.2969C15.7226 20.6992 16.6016 20.1562 16.7344 20.0898C17.2461 19.8164 17.8476 19.8164 18.4101 20.0859C18.6758 20.2109 18.7891 20.3047 19.4062 20.9141L20.1055 21.6055L20.332 21.4336C20.457 21.3398 20.707 21.1133 20.8906 20.9297C23.5625 18.2656 23.707 14.0859 21.2266 11.2344C20.1445 9.99219 18.4961 9.10938 16.8867 8.90234C16.4101 8.83984 15.7187 8.82422 15.3047 8.85938ZM16.1992 11.8281C16.4531 11.9531 16.5312 12.1328 16.5469 12.5977L16.5625 12.9922L17.082 13.0078C17.6484 13.0195 17.7187 13.043 17.8984 13.2891C18.0117 13.4414 18.0117 13.8086 17.8984 13.9609C17.6992 14.2305 17.7148 14.2266 16.5156 14.25C15.4961 14.2695 15.4219 14.2734 15.3164 14.3516C15.0586 14.5391 15.0156 14.875 15.2148 15.1094C15.3437 15.2656 15.5156 15.3047 16.0547 15.3047C16.7539 15.3047 17.1445 15.4531 17.5234 15.8711C18.2734 16.6875 18.1055 17.9453 17.168 18.5508C17.0469 18.6289 16.8594 18.7188 16.7539 18.7461L16.5625 18.793L16.5469 19.207C16.5312 19.6758 16.4726 19.8281 16.2422 19.9805C15.9961 20.1484 15.5898 20.0703 15.4101 19.8203C15.3359 19.7188 15.3203 19.6328 15.3047 19.2695L15.2851 18.8398L14.75 18.8203C14.1328 18.7969 14.0586 18.7656 13.9062 18.457C13.832 18.3125 13.8203 18.2422 13.8398 18.1133C13.875 17.9062 14.0898 17.6641 14.2812 17.6094C14.3633 17.5898 14.8633 17.5703 15.4062 17.5703C16.3633 17.5703 16.3906 17.5664 16.5195 17.4805C16.6055 17.4219 16.6719 17.332 16.7109 17.2266C16.7617 17.082 16.7617 17.043 16.7109 16.8984C16.6719 16.793 16.6055 16.7031 16.5195 16.6445C16.4023 16.5664 16.3398 16.5547 15.9531 16.5547C15.1797 16.5547 14.7109 16.3867 14.3281 15.9844C13.7851 15.4102 13.6836 14.5234 14.0859 13.8594C14.3086 13.5 14.7969 13.1406 15.1797 13.0586L15.3047 13.0312V12.625C15.3047 12.1914 15.3359 12.0742 15.5078 11.918C15.6992 11.7383 15.9609 11.7031 16.1992 11.8281Z" fill="#4D81E7"/>
<path d="M23.5469 18.0507C23.3594 18.1093 23.1055 18.3749 23.0469 18.5702C22.918 19.0116 23.0117 19.1952 23.7344 19.9218L24.3086 20.4999L22.6094 22.1991L20.9101 23.8983L19.4844 22.4725C18.5195 21.5077 18.0117 21.0311 17.9141 20.9882C17.7422 20.9179 17.418 20.91 17.2773 20.9764C17.2226 20.9999 15.168 22.2655 12.7148 23.7811C8.5664 26.3514 8.24608 26.5585 8.14452 26.7225C8.08202 26.8202 8.02343 26.9686 8.01171 27.0585C7.92968 27.6796 8.58983 28.1835 9.15233 27.9257C9.23827 27.8866 10.082 27.3749 11.0273 26.7889C11.9726 26.203 13.1289 25.4882 13.6016 25.1991C14.0703 24.9061 15.1328 24.2499 15.9609 23.7343L17.4687 22.8007L18.9922 24.3202C20.4258 25.746 20.5312 25.8436 20.707 25.8866C20.9101 25.9374 21.1133 25.9139 21.3008 25.8241C21.3672 25.7929 22.3359 24.8475 23.457 23.7304L25.5 21.6952L26.0781 22.2655C26.8047 22.9882 26.9883 23.0819 27.4297 22.953C27.6367 22.8905 27.8906 22.6366 27.9531 22.4296C28.0195 22.1991 28.0195 18.8007 27.9531 18.5702C27.8906 18.3632 27.625 18.0975 27.4297 18.0429C27.2187 17.9843 23.7344 17.9921 23.5469 18.0507Z" fill="#4D81E7"/>
</g>
<defs>
<clipPath id="clip0_1_7522">
<rect width="20" height="20" fill="white" transform="translate(8 8)"/>
</clipPath>
</defs>
</svg>
