<svg width="20" height="20" viewBox="0 0 20 20" fill="none" xmlns="http://www.w3.org/2000/svg">
<g clip-path="url(#clip0_1_7504)">
<path d="M3.98438 0.855404C3.92969 0.871029 3.82812 0.917904 3.75391 0.95306L3.62109 1.02337L3.94922 1.18744C4.375 1.39447 4.60938 1.57025 4.94922 1.92572C5.34375 2.34369 5.59375 2.80072 5.74609 3.37884C5.81641 3.64056 5.82031 3.98822 5.82031 11.0195C5.82031 17.3593 5.82812 18.4101 5.875 18.5742C6.02734 19.0742 6.61719 19.3124 7.0625 19.0585C7.13281 19.0195 7.72656 18.5273 8.37891 17.9687C9.03125 17.4101 9.57422 16.9531 9.58594 16.9531C9.60156 16.9531 10.1602 17.4218 10.832 17.9999C11.5 18.5742 12.1133 19.0702 12.1875 19.1015C12.375 19.1835 12.6836 19.1718 12.8594 19.0781C12.9375 19.039 13.5352 18.5507 14.1836 17.9921C14.832 17.4374 15.3867 16.9804 15.4141 16.9765C15.4414 16.9765 15.9844 17.4218 16.625 17.9687C17.2617 18.5156 17.8477 19.0038 17.9219 19.0507C18.3828 19.3359 19.0234 19.0546 19.1406 18.5117C19.1719 18.3554 19.1797 16.4452 19.1719 10.996L19.1602 3.69134L19.0703 3.37103C18.7422 2.14056 17.8555 1.25775 16.6289 0.929623L16.3086 0.843685L10.1953 0.835873C6.83203 0.82806 4.03906 0.839779 3.98438 0.855404ZM15.4414 4.29681C15.5234 4.3515 15.6367 4.46478 15.6953 4.54681C15.7891 4.68353 15.8008 4.73822 15.8008 4.99994C15.8008 5.26165 15.7891 5.31634 15.6953 5.45306C15.6367 5.53509 15.5234 5.64837 15.4414 5.70306L15.2969 5.80072H12.5H9.70312L9.55859 5.70306C9.47656 5.64837 9.36328 5.53509 9.30469 5.45306C9.21094 5.31634 9.19922 5.26165 9.19922 4.99603C9.19922 4.72259 9.21094 4.67962 9.31641 4.52728C9.38281 4.43744 9.51172 4.32025 9.60547 4.26947L9.78125 4.17962L12.5391 4.18744L15.2969 4.19915L15.4414 4.29681ZM15.332 7.57415C15.9492 7.8554 15.9844 8.7265 15.3906 9.06243L15.2148 9.16009H12.5C9.79688 9.16009 9.78516 9.16009 9.62891 9.07415C9.32812 8.914 9.17969 8.664 9.17969 8.32025C9.17969 8.09368 9.26953 7.88665 9.44141 7.7265C9.68359 7.49603 9.58203 7.50384 12.5 7.50384C15.0039 7.49993 15.1875 7.50775 15.332 7.57415ZM15.3711 10.9257C15.668 11.082 15.8203 11.3359 15.8203 11.6601C15.8203 11.9921 15.6328 12.2851 15.332 12.4257C15.1836 12.4921 15.0195 12.4999 12.5078 12.4999C10.1836 12.4999 9.82422 12.4921 9.69531 12.4374C9.38672 12.3085 9.17969 12.0077 9.17969 11.6796C9.17969 11.2695 9.39844 10.9804 9.80469 10.8554C9.85938 10.8398 11.0977 10.8281 12.5586 10.832C15.1953 10.8398 15.2148 10.8398 15.3711 10.9257Z" fill="white"/>
<path d="M1.96092 2.41406C1.3906 2.61719 0.972636 3.10156 0.859355 3.69141C0.828105 3.85938 0.820292 4.82812 0.828105 7.07031C0.839823 10.2031 0.839823 10.2148 0.925761 10.3711C1.03123 10.5664 1.15232 10.6836 1.33592 10.7617C1.45701 10.8086 1.7031 10.8203 2.83201 10.8203H4.17967V7.34375C4.17967 4.92188 4.16795 3.80859 4.1367 3.66406C4.02732 3.16016 3.68748 2.72656 3.21482 2.49219C2.98045 2.37891 2.91404 2.36328 2.56248 2.35156C2.25389 2.34375 2.12107 2.35938 1.96092 2.41406Z" fill="white"/>
</g>
<defs>
<clipPath id="clip0_1_7504">
<rect width="20" height="20" fill="white"/>
</clipPath>
</defs>
</svg>
